<svg width="640" height="640" viewBox="0 0 640 640" fill="none" xmlns="http://www.w3.org/2000/svg">
  <defs>
    <linearGradient id="bgGradient" x1="84" y1="70" x2="546" y2="570" gradientUnits="userSpaceOnUse">
      <stop offset="0" stop-color="#60A5FA"/>
      <stop offset="0.45" stop-color="#34D399"/>
      <stop offset="1" stop-color="#FBBF24"/>
    </linearGradient>
    <radialGradient id="bubbleGlow" cx="0" cy="0" r="1" gradientUnits="userSpaceOnUse" gradientTransform="translate(320 192) rotate(90) scale(240)">
      <stop stop-color="#FFFFFF" stop-opacity="0.72"/>
      <stop offset="1" stop-color="#FFFFFF" stop-opacity="0"/>
    </radialGradient>
    <linearGradient id="faceGradient" x1="200" y1="188" x2="440" y2="476" gradientUnits="userSpaceOnUse">
      <stop offset="0" stop-color="#FFFFFF"/>
      <stop offset="1" stop-color="#ECFEFF"/>
    </linearGradient>
    <linearGradient id="screenGradient" x1="238" y1="238" x2="402" y2="372" gradientUnits="userSpaceOnUse">
      <stop offset="0" stop-color="#0F172A"/>
      <stop offset="1" stop-color="#1E293B"/>
    </linearGradient>
    <filter id="softShadow" x="54" y="58" width="532" height="536" filterUnits="userSpaceOnUse" color-interpolation-filters="sRGB">
      <feFlood flood-opacity="0" result="BackgroundImageFix"/>
      <feColorMatrix in="SourceAlpha" type="matrix" values="0 0 0 0 0 0 0 0 0 0 0 0 0 0 0 0 0 0 127 0" result="hardAlpha"/>
      <feOffset dy="18"/>
      <feGaussianBlur stdDeviation="16"/>
      <feColorMatrix type="matrix" values="0 0 0 0 0.05098 0 0 0 0 0.11372 0 0 0 0 0.17254 0 0 0 0.3 0"/>
      <feBlend mode="normal" in2="BackgroundImageFix" result="effect1_dropShadow_1_1"/>
      <feBlend mode="normal" in="SourceGraphic" in2="effect1_dropShadow_1_1" result="shape"/>
    </filter>
  </defs>

  <g filter="url(#softShadow)">
    <rect x="88" y="86" width="464" height="464" rx="152" fill="url(#bgGradient)"/>
    <rect x="88" y="86" width="464" height="464" rx="152" fill="url(#bubbleGlow)"/>

    <circle cx="186" cy="174" r="22" fill="#FDF2F8" fill-opacity="0.85"/>
    <circle cx="472" cy="174" r="16" fill="#FFF7ED" fill-opacity="0.9"/>
    <circle cx="130" cy="442" r="18" fill="#F0FDFA" fill-opacity="0.88"/>
    <circle cx="498" cy="442" r="26" fill="#FFFBEB" fill-opacity="0.82"/>

    <rect x="194" y="186" width="252" height="284" rx="72" fill="url(#faceGradient)"/>
    <rect x="194" y="186" width="252" height="284" rx="72" stroke="#BAE6FD" stroke-width="5"/>

    <rect x="228" y="222" width="184" height="46" rx="23" fill="#E0F2FE"/>
    <circle cx="254" cy="245" r="9" fill="#22C55E"/>
    <circle cx="386" cy="245" r="9" fill="#F59E0B"/>
    <path d="M274 245H366" stroke="#0F172A" stroke-width="6" stroke-linecap="round"/>

    <rect x="236" y="278" width="168" height="98" rx="28" fill="url(#screenGradient)"/>
    <circle cx="280" cy="326" r="16" fill="#FFFFFF"/>
    <circle cx="360" cy="326" r="16" fill="#FFFFFF"/>
    <circle cx="286" cy="331" r="8" fill="#0EA5E9"/>
    <circle cx="354" cy="331" r="8" fill="#0EA5E9"/>
    <path d="M287 352C295 362 307 368 320 368C333 368 345 362 353 352" stroke="#FACC15" stroke-width="8" stroke-linecap="round"/>

    <path d="M286 404C296 412 308 416 320 416C332 416 344 412 354 404" stroke="#0EA5E9" stroke-width="8" stroke-linecap="round"/>
    <circle cx="250" cy="406" r="10" fill="#FDBA74"/>
    <circle cx="390" cy="406" r="10" fill="#FDBA74"/>

    <rect x="278" y="150" width="84" height="30" rx="15" fill="#FDE68A" stroke="#F59E0B" stroke-width="4"/>
    <circle cx="320" cy="146" r="12" fill="#F59E0B"/>
    <path d="M320 122V92" stroke="#F59E0B" stroke-width="8" stroke-linecap="round"/>
  </g>
</svg>
