<svg width="640" height="640" viewBox="0 0 640 640" fill="none" xmlns="http://www.w3.org/2000/svg">
  <defs>
    <linearGradient id="bgGradient" x1="82" y1="52" x2="566" y2="590" gradientUnits="userSpaceOnUse">
      <stop offset="0" stop-color="#14B8A6"/>
      <stop offset="0.52" stop-color="#0EA5E9"/>
      <stop offset="1" stop-color="#F59E0B"/>
    </linearGradient>
    <linearGradient id="chipGradient" x1="186" y1="170" x2="452" y2="474" gradientUnits="userSpaceOnUse">
      <stop offset="0" stop-color="#F8FAFC"/>
      <stop offset="1" stop-color="#E2E8F0"/>
    </linearGradient>
    <radialGradient id="glowGradient" cx="0" cy="0" r="1" gradientUnits="userSpaceOnUse" gradientTransform="translate(320 282) rotate(90) scale(244)">
      <stop stop-color="#FFFFFF" stop-opacity="0.58"/>
      <stop offset="1" stop-color="#FFFFFF" stop-opacity="0"/>
    </radialGradient>
    <filter id="softShadow" x="55" y="53" width="530" height="530" filterUnits="userSpaceOnUse" color-interpolation-filters="sRGB">
      <feFlood flood-opacity="0" result="BackgroundImageFix"/>
      <feColorMatrix in="SourceAlpha" type="matrix" values="0 0 0 0 0 0 0 0 0 0 0 0 0 0 0 0 0 0 127 0" result="hardAlpha"/>
      <feOffset dy="18"/>
      <feGaussianBlur stdDeviation="16"/>
      <feColorMatrix type="matrix" values="0 0 0 0 0.0144 0 0 0 0 0.1056 0 0 0 0 0.1424 0 0 0 0.26 0"/>
      <feBlend mode="normal" in2="BackgroundImageFix" result="effect1_dropShadow_1_1"/>
      <feBlend mode="normal" in="SourceGraphic" in2="effect1_dropShadow_1_1" result="shape"/>
    </filter>
  </defs>

  <g filter="url(#softShadow)">
    <rect x="87" y="85" width="466" height="466" rx="148" fill="url(#bgGradient)"/>
    <rect x="87" y="85" width="466" height="466" rx="148" fill="url(#glowGradient)"/>

    <rect x="184" y="166" width="272" height="298" rx="62" fill="url(#chipGradient)" fill-opacity="0.94"/>
    <rect x="184" y="166" width="272" height="298" rx="62" stroke="#E2E8F0" stroke-width="4"/>

    <rect x="251" y="248" width="138" height="16" rx="8" fill="#0F172A" fill-opacity="0.86"/>
    <rect x="251" y="286" width="138" height="16" rx="8" fill="#0F172A" fill-opacity="0.86"/>
    <rect x="251" y="324" width="86" height="16" rx="8" fill="#0F172A" fill-opacity="0.86"/>

    <circle cx="320" cy="402" r="34" fill="#0F172A"/>
    <path d="M320 384L333.2 408.3L306.8 408.3L320 384Z" fill="#F8FAFC"/>

    <circle cx="156" cy="276" r="20" fill="#F8FAFC" fill-opacity="0.96"/>
    <circle cx="484" cy="244" r="20" fill="#F8FAFC" fill-opacity="0.96"/>
    <circle cx="500" cy="398" r="20" fill="#F8FAFC" fill-opacity="0.96"/>
    <circle cx="146" cy="402" r="20" fill="#F8FAFC" fill-opacity="0.96"/>

    <path d="M176 276H232" stroke="#F8FAFC" stroke-width="12" stroke-linecap="round"/>
    <path d="M408 244H464" stroke="#F8FAFC" stroke-width="12" stroke-linecap="round"/>
    <path d="M408 398H472" stroke="#F8FAFC" stroke-width="12" stroke-linecap="round"/>
    <path d="M168 402H232" stroke="#F8FAFC" stroke-width="12" stroke-linecap="round"/>
  </g>
</svg>
