<svg width="1280" height="720" viewBox="0 0 1280 720" fill="none" xmlns="http://www.w3.org/2000/svg">
  <defs>
    <linearGradient id="bg" x1="0" y1="0" x2="1" y2="1">
      <stop offset="0%" stop-color="#061720"/>
      <stop offset="50%" stop-color="#0B2432"/>
      <stop offset="100%" stop-color="#142D3A"/>
    </linearGradient>
    <radialGradient id="g1" cx="0" cy="0" r="1" gradientUnits="userSpaceOnUse" gradientTransform="translate(210 160) rotate(25) scale(420 280)">
      <stop stop-color="#14B8A6" stop-opacity="0.45"/>
      <stop offset="1" stop-color="#14B8A6" stop-opacity="0"/>
    </radialGradient>
    <radialGradient id="g2" cx="0" cy="0" r="1" gradientUnits="userSpaceOnUse" gradientTransform="translate(1030 120) rotate(20) scale(320 220)">
      <stop stop-color="#F59E0B" stop-opacity="0.35"/>
      <stop offset="1" stop-color="#F59E0B" stop-opacity="0"/>
    </radialGradient>
  </defs>
  <rect width="1280" height="720" fill="url(#bg)"/>
  <rect width="1280" height="720" fill="url(#g1)"/>
  <rect width="1280" height="720" fill="url(#g2)"/>

  <rect x="80" y="84" width="350" height="38" rx="19" fill="#2DD4BF" fill-opacity="0.18"/>
  <text x="104" y="109" fill="#D1FAE5" font-family="Arial, sans-serif" font-size="15" letter-spacing="1.2">HEY TEACHER DEVICE DEMO</text>

  <text x="80" y="210" fill="#F8FAFC" font-family="Arial, sans-serif" font-size="56" font-weight="700">How Children Learn</text>
  <text x="80" y="272" fill="#F8FAFC" font-family="Arial, sans-serif" font-size="56" font-weight="700">With Voice Only</text>

  <text x="80" y="334" fill="#C8D5DF" font-family="Arial, sans-serif" font-size="24">Wake word, adaptive lessons, safe guidance, and parent sync.</text>

  <rect x="826" y="140" width="360" height="450" rx="54" fill="#FFFFFF" fill-opacity="0.08" stroke="#FFFFFF" stroke-opacity="0.28"/>
  <rect x="858" y="196" width="296" height="324" rx="34" fill="#04131B"/>
  <circle cx="1006" cy="324" r="52" fill="#14B8A6" fill-opacity="0.28"/>
  <circle cx="1006" cy="324" r="35" fill="#14B8A6"/>
  <path d="M997 311L1019 324L997 337V311Z" fill="#E2FEFA"/>
  <text x="928" y="422" fill="#DCFDF7" font-family="Arial, sans-serif" font-size="18">Listening: Hey Teacher</text>

  <rect x="80" y="566" width="460" height="62" rx="31" fill="#FFFFFF" fill-opacity="0.1" stroke="#FFFFFF" stroke-opacity="0.22"/>
  <text x="116" y="605" fill="#F1F5F9" font-family="Arial, sans-serif" font-size="24">Drop MP4 at /public/videos/hey-teacher-device-demo.mp4</text>
</svg>
